<svg xmlns="http://www.w3.org/2000/svg" viewBox="0 0 250 350" width="250" height="350"><rect width="250" height="350" rx="30" fill="#F7F6F2"/><path d="M2.5 30 A 27.5 27.5 0 0 1 30 2.5 H 220 A 27.5 27.5 0 0 1 247.5 30" fill="none" stroke="#FFFFFF" stroke-width="3" stroke-linecap="round"/><g fill="#E23A2E"><g transform="translate(21.12 150)"><path transform="translate(0.00 0) scale(0.13200 -0.13200)" d="M244 -15Q173 -15 127.0 5.0Q81 25 59.0 58.5Q37 92 37 132Q37 170 52.5 198.5Q68 227 104.5 250.5Q141 274 203 294V303L218 289Q199 262 186.0 237.0Q173 212 167.0 187.0Q161 162 161 133Q161 97 171.5 69.0Q182 41 202.0 26.0Q222 11 247 11Q284 11 309.0 39.0Q334 67 334 123Q334 163 314.0 190.5Q294 218 263.0 240.5Q232 263 197 284Q161 307 127.5 332.0Q94 357 72.5 392.0Q51 427 51 476Q51 531 78.5 569.0Q106 607 153.0 626.5Q200 646 260 646Q326 646 367.5 627.5Q409 609 428.5 578.0Q448 547 448 509Q448 477 435.0 449.5Q422 422 388.5 399.5Q355 377 295 357V348L280 359Q309 401 320.5 435.5Q332 470 332 508Q332 542 323.5 567.0Q315 592 298.5 606.0Q282 620 257 620Q234 620 216.0 608.5Q198 597 187.5 575.0Q177 553 177 518Q177 484 194.5 457.5Q212 431 240.5 410.0Q269 389 301 369Q341 345 379.5 318.0Q418 291 443.0 255.5Q468 220 468 168Q468 110 439.0 69.5Q410 29 359.5 7.0Q309 -15 244 -15Z"/></g><g transform="translate(13.28 187.11) scale(0.9786)"><path d="M50 5L87 50L50 95L13 50Z"/></g></g></svg>